<?xml version="1.0" encoding="iso-8859-1"?>
<!-- Generator: Adobe Illustrator 19.0.0, SVG Export Plug-In . SVG Version: 6.00 Build 0)  -->
<svg version="1.1" id="Layer_1" xmlns="http://www.w3.org/2000/svg" xmlns:xlink="http://www.w3.org/1999/xlink" x="0px" y="0px"
	 viewBox="0 0 218.166 218.166" style="enable-background:new 0 0 218.166 218.166;" xml:space="preserve">
<g>
	<g>
		<path d="M173.312,87.998c2.12-6.625,3.205-13.543,3.205-20.565C176.518,30.25,146.268,0,109.084,0S41.651,30.25,41.651,67.433
			c0,7.035,1.137,13.922,3.257,20.546c-25.086,9.833-42.924,34.223-42.924,62.754c0,37.184,30.25,67.433,67.433,67.433
			c14.28,0,28.219-4.622,39.702-12.994c11.14,8.133,24.813,12.994,39.631,12.994c37.184,0,67.433-30.25,67.433-67.433
			C216.183,122.222,198.37,97.845,173.312,87.998z M109.084,7.933c32.808,0,59.5,26.69,59.5,59.5c0,6.192-0.956,12.288-2.821,18.126
			c-5.446-1.424-11.127-2.259-17.013-2.259c-14.818,0-28.49,4.861-39.63,12.993C97.544,87.817,83.898,83.3,69.417,83.3
			c-5.869,0-11.534,0.831-16.965,2.247c-1.867-5.839-2.869-11.908-2.869-18.114C49.584,34.623,76.276,7.933,109.084,7.933z
			 M69.417,210.233c-32.808,0-59.5-26.69-59.5-59.5s26.692-59.5,59.5-59.5c12.097,0,23.547,3.545,33.401,10.269
			c-13.193,12.317-21.501,29.801-21.501,49.231c0,19.433,8.311,36.92,21.506,49.237C93.021,206.617,81.342,210.233,69.417,210.233z
			 M148.751,210.233c-13.43,0-25.792-4.525-35.76-12.058c-0.128-0.254-0.21-0.523-0.397-0.752c-0.587-0.717-1.388-1.116-2.228-1.302
			c-12.895-10.922-21.115-27.204-21.115-45.388c0-32.81,26.692-59.5,59.5-59.5s59.5,26.69,59.5,59.5
			S181.558,210.233,148.751,210.233z"/>
	</g>
</g>
<g>
</g>
<g>
</g>
<g>
</g>
<g>
</g>
<g>
</g>
<g>
</g>
<g>
</g>
<g>
</g>
<g>
</g>
<g>
</g>
<g>
</g>
<g>
</g>
<g>
</g>
<g>
</g>
<g>
</g>
</svg>
